<svg id="noun-doctor-1030150" xmlns="http://www.w3.org/2000/svg" width="12.078" height="13.319" viewBox="0 0 12.078 13.319">
  <g id="Group_14951" data-name="Group 14951" transform="translate(0 0)">
    <path id="Path_29311" data-name="Path 29311" d="M31.384,11.909c1.783,0,3.233-1.892,3.233-3.675a3.233,3.233,0,1,0-6.466,0C28.151,10.016,29.6,11.909,31.384,11.909Z" transform="translate(-25.345 -5)" fill="#7e3a93"/>
    <path id="Path_29312" data-name="Path 29312" d="M17.983,52.3a1.992,1.992,0,0,1,.9,1.5.963.963,0,1,1-.444.006,1.55,1.55,0,0,0-.972-1.274l-2.174,2.037-2.2-2.064a1.549,1.549,0,0,0-1.052,1.416.487.487,0,0,1,.2.22,1.838,1.838,0,0,1,.809.91.317.317,0,0,1,.014.238,2.866,2.866,0,0,1,.2.993c0,.424,0,.825-.462.928a.278.278,0,0,1-.179.065h-.309a.281.281,0,0,1-.281-.281v-.011a.283.283,0,0,1,.281-.27h.309a.276.276,0,0,1,.092.016.082.082,0,0,0,.025-.01,1.632,1.632,0,0,0,.034-.437,2.356,2.356,0,0,0-.169-.819.315.315,0,0,1-.129-.138c-.187-.392-.442-.646-.649-.646s-.479.274-.666.681a.32.32,0,0,1-.15.153,2.294,2.294,0,0,0-.151.768,1.519,1.519,0,0,0,.039.438.157.157,0,0,0,.034.011.281.281,0,0,1,.1-.019h.31a.281.281,0,0,1,.279.253l0,.017a.284.284,0,0,1-.281.292h-.31a.278.278,0,0,1-.17-.058.534.534,0,0,1-.38-.238,1.315,1.315,0,0,1-.113-.7,2.823,2.823,0,0,1,.2-.975.312.312,0,0,1,.018-.211,2.345,2.345,0,0,1,.482-.709,1.333,1.333,0,0,1,.324-.233.494.494,0,0,1,.208-.234,1.989,1.989,0,0,1,.924-1.63A4.3,4.3,0,0,0,9.192,56.48c0,1.176,2.7,2.13,6.039,2.13s6.039-.954,6.039-2.13A4.3,4.3,0,0,0,17.983,52.3Z" transform="translate(-9.192 -45.291)" fill="#7e3a93"/>
    <ellipse id="Ellipse_133" data-name="Ellipse 133" cx="0.444" cy="0.444" rx="0.444" ry="0.444" transform="translate(9.038 9.002)" fill="#7e3a93"/>
  </g>
</svg>
