<svg id="noun-video-7772741" xmlns="http://www.w3.org/2000/svg" width="15.907" height="10.761" viewBox="0 0 15.907 10.761">
  <path id="Path_28029" data-name="Path 28029" d="M3.137,17.152h8.779a1.7,1.7,0,0,1,1.7,1.7v1.6l3.18-1.507a.368.368,0,0,1,.183-.047.374.374,0,0,1,.374.374v6.522a.375.375,0,0,1-.533.338l-3.2-1.519v1.6a1.7,1.7,0,0,1-1.7,1.7H3.137a1.7,1.7,0,0,1-1.7-1.7V18.849a1.7,1.7,0,0,1,1.7-1.7Zm3.331,2.543,3.739,2.528a.373.373,0,0,1,.1.518.363.363,0,0,1-.107.1L6.453,25.38a.373.373,0,0,1-.582-.309V19.995a.374.374,0,0,1,.6-.3Zm2.863,2.837L6.617,20.7v3.669l2.714-1.835Z" transform="translate(-1.441 -17.152)" fill="#7e3a93" fill-rule="evenodd"/>
</svg>
