<svg xmlns="http://www.w3.org/2000/svg" width="140.427" height="55.604" viewBox="0 0 140.427 55.604">
  <g id="Group_1768" data-name="Group 1768" transform="translate(-791.838 364.79)">
    <g id="rainbow-logo" transform="translate(791.838 -364.79)">
      <g id="Group_14038" data-name="Group 14038" transform="translate(0)">
        <path id="Path_27564" data-name="Path 27564" d="M2486.3,651.675A10.7,10.7,0,1,1,2475.57,641h.055a10.68,10.68,0,0,1,10.67,10.675" transform="translate(-2464.739 -641)" fill="#7e3a93"/>
        <path id="Path_27565" data-name="Path 27565" d="M2471.542,1035c-5.257,0-7.97-2.553-10.142-5.7v21.515a15.743,15.743,0,0,0,31.486,0,14.9,14.9,0,0,0-4.6-11.024,15.844,15.844,0,0,0-11.547-4.655c-1.768,0-5.2-.133-5.2-.133" transform="translate(-2461.4 -1011.472)" fill="#7e3a93"/>
        <path id="Path_27566" data-name="Path 27566" d="M5406.75,803.476l-.2-2.571h-.739l-.446,1.267c-.055.188-.115.409-.179.643h-.01c-.064-.266-.114-.45-.169-.652l-.446-1.258h-.766l-.188,2.571h.486l.092-1.515c.009-.239.019-.482.019-.721h.031c.056.229.129.533.18.73l.463,1.465h.528l.463-1.428c.078-.234.151-.537.216-.767h.032c.009.275.009.519.019.721l.092,1.515Zm-5.45-2.576v.427h.821v2.149h.511v-2.149h.822V800.9Z" transform="translate(-5266.322 -793.559)" fill="#7e3a93"/>
        <g id="Group_14035" data-name="Group 14035" transform="translate(35.706 34.205)">
          <path id="Path_27567" data-name="Path 27567" d="M3239.1,1388.676a.352.352,0,0,1,.376-.376h1.993c1.285,0,1.933.661,1.933,1.681a1.365,1.365,0,0,1-.868,1.4v.018a1.468,1.468,0,0,1,.983,1.483c0,1.208-.776,1.832-2.075,1.832h-1.965a.345.345,0,0,1-.376-.376v-5.666Zm2.351,2.4a1.012,1.012,0,1,0,0-2.011H3240c-.042,0-.055.018-.055.055v1.9c0,.041.018.055.055.055h1.455Zm-1.455,2.879h1.5c.767,0,1.18-.413,1.18-1.056a1.032,1.032,0,0,0-1.18-1.056H3240c-.042,0-.055.018-.055.055v2A.049.049,0,0,0,3240,1393.956Z" transform="translate(-3239.1 -1388.194)" fill="#211e1f"/>
          <path id="Path_27568" data-name="Path 27568" d="M3351.149,1391.066v2.2a.4.4,0,0,1-.413.45.409.409,0,0,1-.413-.45v-2.2l-1.759-3.241a.628.628,0,0,1-.064-.248.38.38,0,0,1,.4-.376.387.387,0,0,1,.367.248l1.474,2.736h.028l1.455-2.736a.393.393,0,0,1,.367-.248.374.374,0,0,1,.385.376.626.626,0,0,1-.063.248Z" transform="translate(-3343.477 -1387.145)" fill="#211e1f"/>
          <path id="Path_27569" data-name="Path 27569" d="M3515.5,1394.315v-5.638a.352.352,0,0,1,.377-.376h2.01a1.817,1.817,0,0,1,2.03,1.85,1.7,1.7,0,0,1-1.217,1.726l1.153,2.264a.491.491,0,0,1,.055.225.387.387,0,0,1-.409.395.457.457,0,0,1-.409-.262l-1.267-2.5h-1.437c-.041,0-.055.018-.055.055v2.259a.4.4,0,0,1-.413.45A.4.4,0,0,1,3515.5,1394.315Zm3.59-4.16a1.042,1.042,0,0,0-1.189-1.07h-1.5c-.041,0-.055.018-.055.055v2.02a.049.049,0,0,0,.055.055h1.5C3518.649,1391.216,3519.09,1390.82,3519.09,1390.155Z" transform="translate(-3502.81 -1388.194)" fill="#211e1f"/>
          <path id="Path_27570" data-name="Path 27570" d="M3631.936,1393.141l1.974-5.468c.106-.3.266-.473.547-.473a.593.593,0,0,1,.569.473l1.947,5.468a.59.59,0,0,1,.042.188.379.379,0,0,1-.395.386.418.418,0,0,1-.409-.3l-.436-1.235h-2.635l-.436,1.235a.411.411,0,0,1-.408.3.379.379,0,0,1-.395-.386A.636.636,0,0,1,3631.936,1393.141Zm3.558-1.736-1.02-2.915h-.028l-1.038,2.915Z" transform="translate(-3613.865 -1387.145)" fill="#211e1f"/>
          <path id="Path_27571" data-name="Path 27571" d="M3767.2,1387.85a.419.419,0,1,1,.836,0v5.611a.419.419,0,1,1-.836,0Z" transform="translate(-3742.954 -1387.335)" fill="#211e1f"/>
          <path id="Path_27572" data-name="Path 27572" d="M3820,1387.81a.45.45,0,0,1,.463-.51c.248,0,.409.161.569.436l2.736,4.522h.042v-4.531a.392.392,0,1,1,.781,0v5.574a.45.45,0,0,1-.464.51c-.248,0-.413-.161-.574-.436l-2.736-4.5h-.027v4.513a.392.392,0,1,1-.781,0l-.009-5.574Z" transform="translate(-3793.33 -1387.24)" fill="#211e1f"/>
          <path id="Path_27573" data-name="Path 27573" d="M3954.4,1388.676a.352.352,0,0,1,.376-.376h1.993c1.286,0,1.934.661,1.934,1.681a1.366,1.366,0,0,1-.868,1.4v.018a1.469,1.469,0,0,1,.983,1.483c0,1.208-.776,1.832-2.076,1.832h-1.965a.345.345,0,0,1-.376-.376v-5.666Zm2.356,2.4a1.012,1.012,0,1,0,0-2.011H3955.3c-.042,0-.055.018-.055.055v1.9c0,.041.019.055.055.055h1.456Zm-1.456,2.879h1.5c.767,0,1.18-.413,1.18-1.056a1.032,1.032,0,0,0-1.18-1.056h-1.5c-.042,0-.055.018-.055.055v2C3955.24,1393.938,3955.263,1393.956,3955.3,1393.956Z" transform="translate(-3921.559 -1388.194)" fill="#211e1f"/>
          <path id="Path_27574" data-name="Path 27574" d="M4073.879,1391.11a9.107,9.107,0,0,1,0-3.591,2.318,2.318,0,0,1,4.353,0,9.083,9.083,0,0,1,0,3.591,2.318,2.318,0,0,1-4.353,0Zm3.531-.253a7.877,7.877,0,0,0,0-3.076,1.421,1.421,0,0,0-2.708,0,7.89,7.89,0,0,0,0,3.076,1.421,1.421,0,0,0,2.708,0Z" transform="translate(-4035.382 -1386)" fill="#211e1f"/>
          <path id="Path_27575" data-name="Path 27575" d="M4197.7,1393.36l-1.267-4.472h-.019l-1.285,4.472c-.092.321-.226.45-.455.45s-.367-.133-.449-.45l-1.4-5.464a.934.934,0,0,1-.027-.2.385.385,0,0,1,.408-.395.408.408,0,0,1,.409.358l1.106,4.55h.019l1.253-4.5c.078-.275.215-.409.436-.409s.35.133.422.409l1.286,4.513h.018l1.07-4.564a.4.4,0,0,1,.408-.358.387.387,0,0,1,.409.395.961.961,0,0,1-.027.2l-1.4,5.464c-.083.321-.225.45-.45.45S4197.8,1393.682,4197.7,1393.36Z" transform="translate(-4149.014 -1387.24)" fill="#211e1f"/>
          <path id="Path_27576" data-name="Path 27576" d="M4419.6,1387.85a.419.419,0,1,1,.835,0v2.323c0,.041.019.055.056.055h2.786c.042,0,.056-.018.056-.055v-2.323a.419.419,0,1,1,.835,0v5.611a.419.419,0,1,1-.835,0v-2.387a.049.049,0,0,0-.056-.055h-2.786c-.042,0-.056.018-.056.055v2.387a.4.4,0,0,1-.414.45.408.408,0,0,1-.422-.45Z" transform="translate(-4365.401 -1387.335)" fill="#211e1f"/>
          <path id="Path_27577" data-name="Path 27577" d="M4549.079,1391.11a9.083,9.083,0,0,1,0-3.591,2.318,2.318,0,0,1,4.353,0,9.083,9.083,0,0,1,0,3.591,2.318,2.318,0,0,1-4.353,0Zm3.535-.253a7.865,7.865,0,0,0,0-3.076,1.421,1.421,0,0,0-2.708,0,7.89,7.89,0,0,0,0,3.076,1.308,1.308,0,0,0,1.35.992A1.323,1.323,0,0,0,4552.614,1390.858Z" transform="translate(-4488.763 -1386)" fill="#211e1f"/>
          <path id="Path_27578" data-name="Path 27578" d="M4675.41,1392.024a.439.439,0,0,1-.21-.367.393.393,0,0,1,.409-.395.6.6,0,0,1,.265.083,2.932,2.932,0,0,0,1.6.5c.9,0,1.437-.436,1.437-1.1,0-.546-.3-.886-1.341-1.047l-.312-.046c-1.295-.2-1.9-.776-1.9-1.786a1.856,1.856,0,0,1,2.094-1.869,3.367,3.367,0,0,1,1.7.436.422.422,0,0,1,.225.368.37.37,0,0,1-.377.376.711.711,0,0,1-.274-.078,3.214,3.214,0,0,0-1.3-.321c-.812,0-1.216.445-1.216,1.038,0,.537.33.877,1.331,1.033l.312.046c1.295.2,1.906.776,1.906,1.8,0,1.111-.794,1.928-2.351,1.928A3.566,3.566,0,0,1,4675.41,1392.024Z" transform="translate(-4609.265 -1386)" fill="#211e1f"/>
          <path id="Path_27579" data-name="Path 27579" d="M4802.6,1388.676a.352.352,0,0,1,.376-.376h1.983a1.924,1.924,0,1,1,0,3.838H4803.5c-.041,0-.055.018-.055.055v2.126a.4.4,0,0,1-.413.45.408.408,0,0,1-.422-.45l0-5.643Zm3.59,1.543a1.106,1.106,0,0,0-1.258-1.134H4803.5c-.041,0-.055.018-.055.055v2.153a.049.049,0,0,0,.055.055h1.438A1.1,1.1,0,0,0,4806.19,1390.219Z" transform="translate(-4730.816 -1388.194)" fill="#211e1f"/>
          <path id="Path_27580" data-name="Path 27580" d="M4924.3,1387.85a.419.419,0,1,1,.835,0v5.611a.4.4,0,0,1-.413.45.408.408,0,0,1-.422-.45Z" transform="translate(-4846.929 -1387.335)" fill="#211e1f"/>
          <path id="Path_27581" data-name="Path 27581" d="M4967.824,1388.3a.391.391,0,1,1,0,.781h-1.482a.048.048,0,0,0-.055.055v5.174a.419.419,0,1,1-.836,0v-5.174a.049.049,0,0,0-.056-.055h-1.482a.391.391,0,1,1,0-.781Z" transform="translate(-4884.329 -1388.194)" fill="#211e1f"/>
          <path id="Path_27582" data-name="Path 27582" d="M5061.037,1393.141l1.973-5.468c.106-.3.267-.473.547-.473a.584.584,0,0,1,.564.473l1.947,5.468a.59.59,0,0,1,.042.188.379.379,0,0,1-.4.386.418.418,0,0,1-.408-.3l-.437-1.235h-2.63l-.436,1.235a.412.412,0,0,1-.409.3.379.379,0,0,1-.395-.386A.629.629,0,0,1,5061.037,1393.141Zm3.558-1.736-1.019-2.915h-.028l-1.038,2.915Z" transform="translate(-4977.352 -1387.145)" fill="#211e1f"/>
          <path id="Path_27583" data-name="Path 27583" d="M5196.1,1387.85a.4.4,0,0,1,.413-.45.411.411,0,0,1,.423.45v5.174a.048.048,0,0,0,.055.055h2.787a.391.391,0,1,1,0,.781h-3.274a.382.382,0,0,1-.409-.413l.005-5.6Z" transform="translate(-5106.25 -1387.335)" fill="#211e1f"/>
          <path id="Path_27584" data-name="Path 27584" d="M5301.211,1392.024a.438.438,0,0,1-.211-.367.392.392,0,0,1,.408-.395.6.6,0,0,1,.266.083,2.934,2.934,0,0,0,1.6.5c.9,0,1.437-.436,1.437-1.1,0-.546-.3-.886-1.34-1.047l-.312-.046c-1.295-.2-1.9-.776-1.9-1.786a1.856,1.856,0,0,1,2.094-1.869,3.372,3.372,0,0,1,1.7.436.424.424,0,0,1,.225.368.37.37,0,0,1-.377.376.718.718,0,0,1-.276-.078,3.21,3.21,0,0,0-1.3-.321c-.812,0-1.216.445-1.216,1.038,0,.537.33.877,1.332,1.033l.312.046c1.295.2,1.906.776,1.906,1.8,0,1.111-.795,1.928-2.351,1.928A3.548,3.548,0,0,1,5301.211,1392.024Z" transform="translate(-5206.333 -1386)" fill="#211e1f"/>
        </g>
        <path id="Path_27585" data-name="Path 27585" d="M3335.006,1616.7h-99.3a.2.2,0,0,1,0-.4h99.3a.2.2,0,1,1,0,.4Z" transform="translate(-3199.959 -1571.522)" fill="#211e1f"/>
        <g id="Group_14036" data-name="Group 14036" transform="translate(35.646 48.323)">
          <path id="Path_27586" data-name="Path 27586" d="M3240.114,1698.175v1.919a.354.354,0,0,1-.363.395.361.361,0,0,1-.363-.395v-1.919l-1.533-2.828a.516.516,0,0,1-.055-.216.337.337,0,0,1,.349-.331.343.343,0,0,1,.321.216l1.285,2.387h.027l1.272-2.387a.343.343,0,0,1,.322-.216.331.331,0,0,1,.34.331.626.626,0,0,1-.055.216Z" transform="translate(-3237.8 -1694.741)" fill="#7e3a93"/>
          <path id="Path_27587" data-name="Path 27587" d="M3327.733,1732.967a2.943,2.943,0,0,1-.133-1.006,2.9,2.9,0,0,1,.133-1,1.677,1.677,0,0,1,3.122,0,3.824,3.824,0,0,1,0,2,1.676,1.676,0,0,1-3.122,0Zm2.447-.2a2.658,2.658,0,0,0,.092-.808,2.59,2.59,0,0,0-.092-.8.95.95,0,0,0-1.781,0,2.588,2.588,0,0,0-.092.8,2.654,2.654,0,0,0,.092.808.95.95,0,0,0,1.781,0Z" transform="translate(-3323.477 -1728.229)" fill="#7e3a93"/>
          <path id="Path_27588" data-name="Path 27588" d="M3426.659,1734.659a.35.35,0,1,1-.7,0v-.115h-.01a1.225,1.225,0,0,1-1.088.537,1.322,1.322,0,0,1-1.364-1.483v-2.227a.35.35,0,1,1,.7,0v2.062c0,.634.28,1.005.872,1.005a.872.872,0,0,0,.891-.964v-2.1a.35.35,0,1,1,.7,0Z" transform="translate(-3414.974 -1729.278)" fill="#7e3a93"/>
          <path id="Path_27589" data-name="Path 27589" d="M3521.2,1733.514v-3.292a.35.35,0,1,1,.7,0v.179h.009a1.068,1.068,0,0,1,1.014-.6,1.089,1.089,0,0,1,.583.142.322.322,0,0,1,.2.3.338.338,0,0,1-.349.349.534.534,0,0,1-.174-.041,1.258,1.258,0,0,0-.454-.1c-.593,0-.831.5-.831,1.152v1.91a.347.347,0,1,1-.693,0Z" transform="translate(-3508.188 -1728.133)" fill="#7e3a93"/>
          <path id="Path_27590" data-name="Path 27590" d="M3637,1701.048v-4.917a.309.309,0,0,1,.331-.331h1.758a1.586,1.586,0,0,1,1.773,1.616,1.489,1.489,0,0,1-1.065,1.511l1.005,1.979a.416.416,0,0,1,.046.2.345.345,0,0,1-.358.349.409.409,0,0,1-.358-.23l-1.106-2.185h-1.244a.041.041,0,0,0-.046.046v1.97a.356.356,0,0,1-.363.395A.365.365,0,0,1,3637,1701.048Zm3.136-3.632a.908.908,0,0,0-1.038-.932h-1.308a.041.041,0,0,0-.046.046v1.763a.045.045,0,0,0,.046.051h1.308A.9.9,0,0,0,3640.136,1697.416Z" transform="translate(-3618.672 -1695.694)" fill="#7e3a93"/>
          <path id="Path_27591" data-name="Path 27591" d="M3744.6,1695.254a.452.452,0,1,1,.45.454A.454.454,0,0,1,3744.6,1695.254Zm.11,1.575a.35.35,0,1,1,.7,0v3.292a.35.35,0,1,1-.7,0Z" transform="translate(-3721.332 -1694.74)" fill="#7e3a93"/>
          <path id="Path_27592" data-name="Path 27592" d="M3788.076,1730.323v-.1a.35.35,0,1,1,.7,0v3.42a1.568,1.568,0,0,1-1.722,1.772,1.831,1.831,0,0,1-1.253-.468.326.326,0,0,1-.1-.225.311.311,0,0,1,.312-.322.483.483,0,0,1,.28.106,1.32,1.32,0,0,0,.781.262c.633,0,1-.312,1-1.07v-.432h-.009a1.152,1.152,0,0,1-1.106.519,1.32,1.32,0,0,1-1.327-.978,3.928,3.928,0,0,1,0-2.029,1.315,1.315,0,0,1,1.327-.978,1.214,1.214,0,0,1,1.106.519l.009,0Zm-.091,2.218a2.306,2.306,0,0,0,.091-.744,2.281,2.281,0,0,0-.091-.735.82.82,0,0,0-.841-.62.811.811,0,0,0-.84.62,2.235,2.235,0,0,0-.092.735,2.259,2.259,0,0,0,.092.744.818.818,0,0,0,.84.62A.829.829,0,0,0,3787.985,1732.541Z" transform="translate(-3760.354 -1728.133)" fill="#7e3a93"/>
          <path id="Path_27593" data-name="Path 27593" d="M3885.6,1695.272a.35.35,0,1,1,.7,0v1.772h.009a1.252,1.252,0,0,1,1.106-.537,1.327,1.327,0,0,1,1.368,1.483v2.227a.349.349,0,1,1-.7,0v-2.062c0-.634-.29-1.005-.882-1.005a.882.882,0,0,0-.9.964v2.1a.35.35,0,1,1-.7,0v-4.945Z" transform="translate(-3855.858 -1694.836)" fill="#7e3a93"/>
          <path id="Path_27594" data-name="Path 27594" d="M3973.976,1709.171c-.808,0-1.107-.34-1.107-1.161v-2.218a.041.041,0,0,0-.045-.046h-.225a.281.281,0,1,1,0-.56h.225c.033,0,.045-.018.045-.051v-.863a.35.35,0,1,1,.7,0v.863a.046.046,0,0,0,.051.051h.519a.281.281,0,1,1,0,.56h-.519a.045.045,0,0,0-.051.046v2.19c0,.422.106.546.528.546a.309.309,0,0,1,.34.321c0,.188-.124.322-.372.322Z" transform="translate(-3938.578 -1703.422)" fill="#7e3a93"/>
          <path id="Path_27595" data-name="Path 27595" d="M4073.476,1709.171c-.808,0-1.106-.34-1.106-1.161v-2.218a.041.041,0,0,0-.046-.046h-.225a.281.281,0,1,1,0-.56h.225c.032,0,.046-.018.046-.051v-.863a.35.35,0,1,1,.7,0v.863a.045.045,0,0,0,.046.051h.519a.281.281,0,1,1,0,.56h-.519a.041.041,0,0,0-.046.046v2.19c0,.422.106.546.528.546a.309.309,0,0,1,.34.321c0,.188-.124.322-.372.322Z" transform="translate(-4033.509 -1703.422)" fill="#7e3a93"/>
          <path id="Path_27596" data-name="Path 27596" d="M4133.934,1732.967a2.936,2.936,0,0,1-.133-1.006,2.9,2.9,0,0,1,.133-1,1.677,1.677,0,0,1,3.122,0,3.838,3.838,0,0,1,0,2,1.676,1.676,0,0,1-3.122,0Zm2.447-.2a2.649,2.649,0,0,0,.092-.808,2.581,2.581,0,0,0-.092-.8.95.95,0,0,0-1.782,0,2.6,2.6,0,0,0-.091.8,2.666,2.666,0,0,0,.091.808.95.95,0,0,0,1.782,0Z" transform="translate(-4092.663 -1728.229)" fill="#7e3a93"/>
          <path id="Path_27597" data-name="Path 27597" d="M4273.13,1733.551a.336.336,0,0,1-.358.33.354.354,0,0,1-.3-.174l-.157-.248h-.009a1.491,1.491,0,0,1-1.212.468c-.881,0-1.391-.436-1.391-1.185,0-.817.56-1.221,1.542-1.221h.9a.041.041,0,0,0,.045-.046v-.188c0-.555-.252-.863-.95-.863a1.917,1.917,0,0,0-.808.2.5.5,0,0,1-.2.055.279.279,0,0,1-.3-.3.306.306,0,0,1,.166-.28,2.195,2.195,0,0,1,1.2-.3c1.056,0,1.552.505,1.552,1.474v1.419a.8.8,0,0,0,.073.4l.142.257A.391.391,0,0,1,4273.13,1733.551Zm-.937-.987v-.436a.041.041,0,0,0-.046-.046h-.79c-.675,0-.978.2-.978.643,0,.413.3.62.827.62C4271.8,1733.339,4272.193,1733.05,4272.193,1732.564Z" transform="translate(-4222.324 -1728.133)" fill="#7e3a93"/>
          <path id="Path_27598" data-name="Path 27598" d="M4405.38,1698.771a.384.384,0,0,1-.18-.322.351.351,0,0,1,.358-.349.439.439,0,0,1,.229.074,2.577,2.577,0,0,0,1.391.436c.79,0,1.253-.376,1.253-.96,0-.478-.261-.776-1.17-.914l-.271-.041c-1.129-.175-1.657-.675-1.657-1.561a1.624,1.624,0,0,1,1.832-1.634,3,3,0,0,1,1.482.377.366.366,0,0,1,.2.321.329.329,0,0,1-.331.331.661.661,0,0,1-.238-.064,2.82,2.82,0,0,0-1.139-.28c-.707,0-1.065.385-1.065.9,0,.469.289.767,1.162.9l.271.041c1.13.175,1.667.675,1.667,1.575,0,.973-.693,1.68-2.052,1.68A2.963,2.963,0,0,1,4405.38,1698.771Z" transform="translate(-4351.602 -1693.5)" fill="#7e3a93"/>
          <path id="Path_27599" data-name="Path 27599" d="M4514.529,1733.551a.336.336,0,0,1-.358.33.355.355,0,0,1-.3-.174l-.156-.248h-.009a1.492,1.492,0,0,1-1.212.468c-.881,0-1.391-.436-1.391-1.185,0-.817.561-1.221,1.543-1.221h.9a.042.042,0,0,0,.046-.046v-.188c0-.555-.253-.863-.951-.863a1.914,1.914,0,0,0-.808.2.5.5,0,0,1-.2.055.28.28,0,0,1-.3-.3.306.306,0,0,1,.166-.28,2.2,2.2,0,0,1,1.2-.3c1.056,0,1.553.505,1.553,1.474v1.419a.791.791,0,0,0,.073.4l.142.257A.4.4,0,0,1,4514.529,1733.551Zm-.936-.987v-.436a.041.041,0,0,0-.045-.046h-.791c-.675,0-.978.2-.978.643,0,.413.3.62.827.62C4513.2,1733.339,4513.593,1733.05,4513.593,1732.564Z" transform="translate(-4452.64 -1728.133)" fill="#7e3a93"/>
          <path id="Path_27600" data-name="Path 27600" d="M4600.6,1697.457a.281.281,0,1,1,0,.56h-.583a.041.041,0,0,0-.046.046v3.007a.35.35,0,1,1-.7,0v-3.007c0-.032-.019-.046-.051-.046H4599a.281.281,0,1,1,0-.56h.225a.046.046,0,0,0,.051-.051v-.349c0-.95.4-1.258,1.222-1.258h.055c.239,0,.362.133.362.321a.308.308,0,0,1-.339.322c-.51,0-.611.1-.611.574v.386a.045.045,0,0,0,.046.05h.592Z" transform="translate(-4536.218 -1695.694)" fill="#7e3a93"/>
          <path id="Path_27601" data-name="Path 27601" d="M4659.233,1732.958a3.936,3.936,0,0,1-.009-1.992,1.519,1.519,0,0,1,1.542-1.065,1.5,1.5,0,0,1,1.552,1.056,2.865,2.865,0,0,1,.134.96.251.251,0,0,1-.271.262h-2.314a.041.041,0,0,0-.046.046,1.561,1.561,0,0,0,.064.477.968.968,0,0,0,1,.684,1.459,1.459,0,0,0,.95-.34.39.39,0,0,1,.239-.1.282.282,0,0,1,.29.289.355.355,0,0,1-.1.248,2.049,2.049,0,0,1-1.419.546A1.528,1.528,0,0,1,4659.233,1732.958Zm2.457-1.336a.041.041,0,0,0,.045-.046,1.591,1.591,0,0,0-.055-.445.97.97,0,0,0-1.809,0,1.366,1.366,0,0,0-.056.445.041.041,0,0,0,.045.046Z" transform="translate(-4593.845 -1728.229)" fill="#7e3a93"/>
          <path id="Path_27602" data-name="Path 27602" d="M4799,1696.13a.308.308,0,0,1,.331-.331h1.428a1.873,1.873,0,0,1,2.029,1.276,7.1,7.1,0,0,1,0,3.049,1.868,1.868,0,0,1-2.029,1.276h-1.428a.308.308,0,0,1-.331-.331Zm.78,4.587h.923c.744,0,1.171-.23,1.368-.84a6.2,6.2,0,0,0,0-2.553c-.2-.611-.629-.84-1.368-.84h-.923a.042.042,0,0,0-.046.046v4.137C4799.734,1700.7,4799.753,1700.717,4799.781,1700.717Z" transform="translate(-4727.322 -1695.694)" fill="#7e3a93"/>
          <path id="Path_27603" data-name="Path 27603" d="M4904.934,1732.958a2.984,2.984,0,0,1-.133-1,3.022,3.022,0,0,1,.124-1,1.519,1.519,0,0,1,1.543-1.065,1.5,1.5,0,0,1,1.552,1.056,2.879,2.879,0,0,1,.133.96.251.251,0,0,1-.271.262h-2.314a.041.041,0,0,0-.046.046,1.561,1.561,0,0,0,.064.477.968.968,0,0,0,1,.684,1.463,1.463,0,0,0,.95-.34.385.385,0,0,1,.239-.1.283.283,0,0,1,.289.289.353.353,0,0,1-.105.248,2.05,2.05,0,0,1-1.418.546A1.525,1.525,0,0,1,4904.934,1732.958Zm2.457-1.336a.041.041,0,0,0,.046-.046,1.573,1.573,0,0,0-.055-.445.97.97,0,0,0-1.809,0,1.38,1.38,0,0,0-.056.445.041.041,0,0,0,.046.046Z" transform="translate(-4828.265 -1728.229)" fill="#7e3a93"/>
          <path id="Path_27604" data-name="Path 27604" d="M5002.064,1700.488c-.707,0-.963-.349-.963-1.056v-4.26a.349.349,0,1,1,.7,0v4.219c0,.331.106.455.377.455a.3.3,0,0,1,.321.321.315.315,0,0,1-.358.322Z" transform="translate(-4920.144 -1694.74)" fill="#7e3a93"/>
          <path id="Path_27605" data-name="Path 27605" d="M5048.6,1695.254a.452.452,0,1,1,.45.454A.455.455,0,0,1,5048.6,1695.254Zm.11,1.575a.35.35,0,1,1,.7,0v3.292a.35.35,0,1,1-.7,0Z" transform="translate(-4965.461 -1694.74)" fill="#7e3a93"/>
          <path id="Path_27606" data-name="Path 27606" d="M5087.825,1734.5l-1.193-3.1a.408.408,0,0,1-.033-.175.327.327,0,0,1,.34-.33.349.349,0,0,1,.33.248l1.024,2.745h.018l1-2.745a.34.34,0,0,1,.331-.248.326.326,0,0,1,.34.33.536.536,0,0,1-.032.175l-1.2,3.1c-.124.322-.229.432-.449.432C5088.054,1734.931,5087.95,1734.826,5087.825,1734.5Z" transform="translate(-5001.717 -1729.183)" fill="#7e3a93"/>
          <path id="Path_27607" data-name="Path 27607" d="M5175.033,1732.958a3.907,3.907,0,0,1-.009-1.992,1.519,1.519,0,0,1,1.542-1.065,1.5,1.5,0,0,1,1.552,1.056,2.879,2.879,0,0,1,.133.96.251.251,0,0,1-.271.262h-2.313a.042.042,0,0,0-.046.046,1.561,1.561,0,0,0,.065.477.967.967,0,0,0,1,.684,1.46,1.46,0,0,0,.95-.34.389.389,0,0,1,.239-.1.283.283,0,0,1,.29.289.353.353,0,0,1-.105.248,2.046,2.046,0,0,1-1.419.546A1.523,1.523,0,0,1,5175.033,1732.958Zm2.456-1.336a.041.041,0,0,0,.045-.046,1.556,1.556,0,0,0-.055-.445.97.97,0,0,0-1.809,0,1.381,1.381,0,0,0-.055.445.041.041,0,0,0,.045.046Z" transform="translate(-5085.962 -1728.229)" fill="#7e3a93"/>
          <path id="Path_27608" data-name="Path 27608" d="M5271.5,1733.514v-3.292a.35.35,0,1,1,.7,0v.179h.009a1.067,1.067,0,0,1,1.014-.6,1.094,1.094,0,0,1,.584.142.321.321,0,0,1,.2.3.337.337,0,0,1-.349.349.54.54,0,0,1-.175-.041,1.257,1.257,0,0,0-.454-.1c-.592,0-.831.5-.831,1.152v1.91a.347.347,0,1,1-.693,0Z" transform="translate(-5178.128 -1728.133)" fill="#7e3a93"/>
          <path id="Path_27609" data-name="Path 27609" d="M5336.06,1736.473a.322.322,0,1,1,0-.643c.321,0,.51-.124.684-.592l.133-.363-1.345-3.388a.476.476,0,0,1-.032-.165.347.347,0,0,1,.679-.073l1.033,2.727h.019l.987-2.727a.322.322,0,0,1,.322-.248.318.318,0,0,1,.339.321.642.642,0,0,1-.032.165l-1.484,3.893c-.348.891-.661,1.1-1.229,1.1l-.074,0Z" transform="translate(-5239.189 -1729.278)" fill="#7e3a93"/>
        </g>
        <g id="Group_14037" data-name="Group 14037" transform="translate(35.711 8.544)">
          <path id="Path_27610" data-name="Path 27610" d="M3239.2,833.445a1.207,1.207,0,0,1,1.24-1.345h4.913c3.319,0,4.958,1.832,4.958,4.577a3.974,3.974,0,0,1-1.845,3.687v.051a4.166,4.166,0,0,1,2.13,3.99c0,3.255-2.011,4.981-5.335,4.981h-4.82a1.188,1.188,0,0,1-1.24-1.322V833.445Zm6.084,5.844a2.275,2.275,0,0,0,0-4.55H3242.1c-.092,0-.142.05-.142.151v4.247c0,.1.045.151.142.151Zm-3.182,7.452h3.319a2.4,2.4,0,1,0,0-4.8H3242.1c-.092,0-.142.05-.142.151v4.5C3241.959,846.691,3242,846.741,3242.1,846.741Z" transform="translate(-3239.2 -831.87)" fill="#7e3a93"/>
          <path id="Path_27611" data-name="Path 27611" d="M3543.565,827.1a1.709,1.709,0,1,1-1.566,1.7A1.64,1.64,0,0,1,3543.565,827.1Zm-1.313,16.143v-9.508a1.321,1.321,0,1,1,2.617,0v9.508a1.321,1.321,0,1,1-2.617,0Z" transform="translate(-3528.097 -827.1)" fill="#7e3a93"/>
          <path id="Path_27612" data-name="Path 27612" d="M3681.813,937.3h.023a3.2,3.2,0,0,1,2.855-1.7,3.016,3.016,0,0,1,1.428.331,1.275,1.275,0,0,1,.7,1.171,1.316,1.316,0,0,1-1.29,1.451,1.776,1.776,0,0,1-.606-.129,3.713,3.713,0,0,0-1.051-.2c-1.451,0-2.057,1.244-2.057,3.1v5.441a1.321,1.321,0,1,1-2.617,0v-9.509a1.321,1.321,0,1,1,2.617,0v.051Z" transform="translate(-3658.999 -930.619)" fill="#7e3a93"/>
          <path id="Path_27613" data-name="Path 27613" d="M3863.574,863a1.015,1.015,0,0,1-1.074-1.093,1.039,1.039,0,0,1,1.074-1.12h.326a.148.148,0,0,0,.166-.152V858.4a1.338,1.338,0,0,1,1.332-1.5,1.322,1.322,0,0,1,1.29,1.5v2.236c0,.1.046.152.142.152h1.194a1.036,1.036,0,0,1,1.074,1.12,1.017,1.017,0,0,1-1.074,1.093h-1.194c-.092,0-.142.051-.142.152v6.1c0,.992.257,1.295,1.217,1.4a1.216,1.216,0,0,1,1.193,1.272,1.255,1.255,0,0,1-1.427,1.272h-.211c-2.457,0-3.393-1.194-3.393-3.866v-6.175a.146.146,0,0,0-.166-.151l-.326,0Z" transform="translate(-3833.883 -855.532)" fill="#7e3a93"/>
          <path id="Path_27614" data-name="Path 27614" d="M4074.3,845.246V839.3c0-1.575-.7-2.667-2.13-2.667-1.382,0-2.153,1.093-2.153,2.667v5.95a1.321,1.321,0,1,1-2.617,0V830.7a1.321,1.321,0,1,1,2.617,0v4.8h.022a3.411,3.411,0,0,1,2.971-1.423c2.41,0,3.907,1.933,3.907,4.55v6.611a1.325,1.325,0,0,1-1.308,1.5C4074.833,846.748,4074.3,846.188,4074.3,845.246Z" transform="translate(-4029.376 -829.104)" fill="#7e3a93"/>
          <path id="Path_27615" data-name="Path 27615" d="M4356.255,848.573l-2.879-6.175h-2.971c-.091,0-.142.051-.142.152v5.385a1.4,1.4,0,0,1-1.382,1.575,1.414,1.414,0,0,1-1.382-1.575v-14.49a1.206,1.206,0,0,1,1.239-1.345h5.147a5.191,5.191,0,0,1,2.25,9.812l2.595,5.261a2.073,2.073,0,0,1,.21.914,1.327,1.327,0,0,1-1.332,1.423A1.406,1.406,0,0,1,4356.255,848.573Zm-.022-11.317a2.308,2.308,0,0,0-2.434-2.466h-3.392c-.092,0-.143.051-.143.151v4.6c0,.1.045.152.143.152h3.392A2.3,2.3,0,0,0,4356.232,837.256Z" transform="translate(-4296.615 -831.87)" fill="#7e3a93"/>
          <path id="Path_27616" data-name="Path 27616" d="M4647.765,827.1a1.709,1.709,0,1,1-1.565,1.7A1.639,1.639,0,0,1,4647.765,827.1Zm-1.309,16.143v-9.508a1.321,1.321,0,1,1,2.617,0v9.508a1.321,1.321,0,1,1-2.617,0Z" transform="translate(-4581.602 -827.1)" fill="#7e3a93"/>
          <path id="Path_27617" data-name="Path 27617" d="M4759.69,951.687a1.5,1.5,0,0,1-.35-.941,1.182,1.182,0,0,1,1.125-1.244,1.743,1.743,0,0,1,1.051.409,3.3,3.3,0,0,0,1.942.634c1.616,0,2.5-.891,2.5-2.948v-1.12h-.023a3.135,3.135,0,0,1-2.993,1.423,3.8,3.8,0,0,1-3.77-3.049,10.246,10.246,0,0,1-.376-3.026,10.444,10.444,0,0,1,.376-3.076,3.816,3.816,0,0,1,3.77-3.049,3.283,3.283,0,0,1,3.044,1.552h.022v-.28a1.263,1.263,0,0,1,1.263-1.12,1.322,1.322,0,0,1,1.308,1.5v9.885c0,3.916-1.846,5.845-5.266,5.845A5.133,5.133,0,0,1,4759.69,951.687Zm6.014-11.822a2.029,2.029,0,0,0-3.976,0,7.488,7.488,0,0,0,0,3.889,2.028,2.028,0,0,0,3.976,0,7.475,7.475,0,0,0,0-3.889Z" transform="translate(-4689.031 -930.714)" fill="#7e3a93"/>
          <path id="Path_27618" data-name="Path 27618" d="M5043,845.246V839.3c0-1.575-.7-2.667-2.13-2.667-1.382,0-2.153,1.093-2.153,2.667v5.95a1.321,1.321,0,1,1-2.617,0V830.7a1.321,1.321,0,1,1,2.617,0v4.8h.022a3.411,3.411,0,0,1,2.971-1.423c2.41,0,3.907,1.933,3.907,4.55v6.611a1.321,1.321,0,1,1-2.617,0Z" transform="translate(-4953.6 -829.104)" fill="#7e3a93"/>
          <path id="Path_27619" data-name="Path 27619" d="M5285.875,863a1.014,1.014,0,0,1-1.074-1.093,1.039,1.039,0,0,1,1.074-1.12h.326a.148.148,0,0,0,.164-.152V858.4a1.339,1.339,0,0,1,1.332-1.5,1.322,1.322,0,0,1,1.29,1.5v2.236c0,.1.046.152.143.152h1.193a1.037,1.037,0,0,1,1.075,1.12,1.017,1.017,0,0,1-1.075,1.093h-1.193c-.092,0-.143.051-.143.152v6.1c0,.992.258,1.295,1.217,1.4a1.217,1.217,0,0,1,1.194,1.272,1.256,1.256,0,0,1-1.429,1.272h-.211c-2.457,0-3.394-1.194-3.394-3.866v-6.175a.146.146,0,0,0-.164-.151l-.326,0Z" transform="translate(-5190.883 -855.532)" fill="#7e3a93"/>
        </g>
      </g>
    </g>
  </g>
</svg>
